/* XPM */
static xpm_row_t const plus_xpm[] = {
"40 40 2 1",
" 	c None",
".	c #000000",
"                 .....                  ",
"                 .....                  ",
"                 .....                  ",
"                 .....                  ",
"                 .....                  ",
"                 .....                  ",
"                 .....                  ",
"                 .....                  ",
"                 .....                  ",
"                 .....                  ",
"                 .....                  ",
"                 .....                  ",
"                 .....                  ",
"                 .....                  ",
"                 .....                  ",
"                 .....                  ",
"                 .....                  ",
"                 .....                  ",
"........................................",
"........................................",
"........................................",
"........................................",
"........................................",
"                 .....                  ",
"                 .....                  ",
"                 .....                  ",
"                 .....                  ",
"                 .....                  ",
"                 .....                  ",
"                 .....                  ",
"                 .....                  ",
"                 .....                  ",
"                 .....                  ",
"                 .....                  ",
"                 .....                  ",
"                 .....                  ",
"                 .....                  ",
"                 .....                  ",
"                 .....                  ",
"                 .....                  "};
