/* XPM */
static xpm_row_t const trash_xpm[] = {
"40 40 72 1",
" 	c None",
".	c #000000",
"+	c #2B2B2B",
"@	c #646464",
"#	c #4C4C4C",
"$	c #F4F4F4",
"%	c #FFFFFF",
"&	c #7F7F7F",
"*	c #6B6B6B",
"=	c #DCDCDC",
"-	c #8A8A8A",
";	c #ABABAB",
">	c #8B8B8B",
",	c #CDCDCD",
"'	c #C2C2C2",
")	c #C3C3C3",
"!	c #ACACAC",
"~	c #FAFAFA",
"{	c #B8B8B8",
"]	c #CCCCCC",
"^	c #FEFEFE",
"/	c #ADADAD",
"(	c #A2A2A2",
"_	c #E6E6E6",
":	c #D2D2D2",
"<	c #A3A3A3",
"[	c #828282",
"}	c #B0B0B0",
"|	c #D0D0D0",
"1	c #C6C6C6",
"2	c #707070",
"3	c #C0C0C0",
"4	c #CACACA",
"5	c #747474",
"6	c #393939",
"7	c #BBBBBB",
"8	c #3F3F3F",
"9	c #D3D3D3",
"0	c #F3F3F3",
"a	c #E2E2E2",
"b	c #A4A4A4",
"c	c #E8E8E8",
"d	c #E9E9E9",
"e	c #8E8E8E",
"f	c #DDDDDD",
"g	c #F1F1F1",
"h	c #7C7C7C",
"i	c #DEDEDE",
"j	c #363636",
"k	c #AEAEAE",
"l	c #4E4E4E",
"m	c #717171",
"n	c #FBFBFB",
"o	c #A5A5A5",
"p	c #808080",
"q	c #EEEEEE",
"r	c #939393",
"s	c #E7E7E7",
"t	c #A8A8A8",
"u	c #404040",
"v	c #AFAFAF",
"w	c #F5F5F5",
"x	c #C9C9C9",
"y	c #BDBDBD",
"z	c #E3E3E3",
"A	c #C4C4C4",
"B	c #B6B6B6",
"C	c #030303",
"D	c #ECECEC",
"E	c #858585",
"F	c #757575",
"G	c #121212",
"               ..........               ",
"              ............              ",
"             ...+@@@@@@+...             ",
"             ..#$%%%%%%$#..             ",
"             ..&%%%%%%%%&..             ",
"             ..*========*..             ",
"  ....................................  ",
" ...................................... ",
"  .....-;;;;;;;;;;;;;;;;;;;;;;;;>.....  ",
"    ...,%%%%%%%%%%%%%%%%%%%%%%%%,...    ",
"     ..'%%%%%%%%%%%%%%%%%%%%%%%%)..     ",
"     ..!%%%~{]%%%%^''^%%%%]{~%%%/..     ",
"     ..(%%%{.._%%%:..:%%%_..{%%%<..     ",
"     ..[%%%}..|%%%1..1%%%|..}%%%[..     ",
"     ..2%%%3..4%%%1..1%%%4..3%%%5..     ",
"     ..6%%%]..7%%%1..1%%%7..]%%%8..     ",
"     ...%%%9../%%%1..1%%%/..9%%%...     ",
"     ...0%%a..b%%%1..1%%%b..a%%$...     ",
"     ...c%%d..e%%%1..1%%%e..d%%c...     ",
"     ...f%%g..h%%%1..1%%%h..g%%i...     ",
"     ...,%%^..*%%%1..1%%%*..^%%,...     ",
"      ..'%%%..j%%%1..1%%%j..%%%)..      ",
"      ..k%%%l..%%%1..1%%%..l%%%k..      ",
"      ..(%%%m..n%%1..1%%n..m%%%o..      ",
"      ..p%%%p..q%%1..1%%q..p%%%p..      ",
"      ..m%%%r..s%%1..1%%s..r%%%5..      ",
"      ..6%%%t..i%%1..1%%i..t%%%u..      ",
"      ...^%%v..|%%1..1%%|..v%%^...      ",
"      ...w%%3..x%%1..1%%x..3%%w...      ",
"      ...c%%]..y%%1..1%%y..]%%c...      ",
"      ...f%%:..!%%1..1%%!..:%%f...      ",
"      ...,%%z..b%%1..1%%b..z%%,...      ",
"       ..A%%c..e%%1..1%%e..c%%A..       ",
"       ..k%%n#.B%%aCCa%%B.#n%%k..       ",
"       ..(%%%wa%%%%DD%%%%aw%%%(..       ",
"       ..E%%%%%%%%%%%%%%%%%%%%E..       ",
"       ..F%%%%%%%%%%%%%%%%%%%%F..       ",
"       ..G@@@@@@@@@@@@@@@@@@@@G..       ",
"       ..........................       ",
"        ........................        "};
