/* XPM */
static char * asteroid_se_xpm[] = {
"64 64 505 2",
"  	c None",
". 	c #2C3E50",
"+ 	c #2C3E4F",
"@ 	c #897B56",
"# 	c #666153",
"$ 	c #FDD666",
"% 	c #DBBB60",
"& 	c #9A8758",
"* 	c #394550",
"= 	c #FFD766",
"- 	c #F1CC64",
"; 	c #BAA05C",
"> 	c #5C5A52",
", 	c #FBD465",
"' 	c #CBAE5E",
") 	c #746B54",
"! 	c #D8B860",
"~ 	c #817555",
"{ 	c #FCD465",
"] 	c #FCD565",
"^ 	c #DABA60",
"/ 	c #7E7255",
"( 	c #FDD566",
"_ 	c #D3B45F",
": 	c #6E6754",
"< 	c #DCBB60",
"[ 	c #FAD365",
"} 	c #C3A75D",
"| 	c #4C5051",
"1 	c #B69D5B",
"2 	c #F2CD64",
"3 	c #9A8857",
"4 	c #7A6F55",
"5 	c #D2B45F",
"6 	c #555652",
"7 	c #2D3F4F",
"8 	c #F0CB64",
"9 	c #F6D064",
"0 	c #E8C562",
"a 	c #E2C061",
"b 	c #E5C262",
"c 	c #F5CF65",
"d 	c #EFCA63",
"e 	c #897A56",
"f 	c #F3CE64",
"g 	c #585752",
"h 	c #2E3F50",
"i 	c #CAAD5E",
"j 	c #B49C5B",
"k 	c #2D3F50",
"l 	c #857756",
"m 	c #F4CE64",
"n 	c #AA803D",
"o 	c #F8B319",
"p 	c #F4B119",
"q 	c #3C4750",
"r 	c #5B524C",
"s 	c #40464E",
"t 	c #857755",
"u 	c #D4B55F",
"v 	c #464C51",
"w 	c #2F4050",
"x 	c #FED666",
"y 	c #A48F58",
"z 	c #B78939",
"A 	c #F5B119",
"B 	c #F0B230",
"C 	c #86734F",
"D 	c #6C5B4A",
"E 	c #ECAB21",
"F 	c #CB9533",
"G 	c #5F544B",
"H 	c #7B7054",
"I 	c #E6C362",
"J 	c #645F52",
"K 	c #C0A55C",
"L 	c #354250",
"M 	c #CB9633",
"N 	c #F1B023",
"O 	c #756149",
"P 	c #9E7841",
"Q 	c #69594A",
"R 	c #BBA15B",
"S 	c #CFB15E",
"T 	c #494E51",
"U 	c #736B54",
"V 	c #6F6753",
"W 	c #C5A95D",
"X 	c #4A4A4D",
"Y 	c #EAAA22",
"Z 	c #E5A726",
"` 	c #41464E",
" .	c #2D3E50",
"..	c #DCA12A",
"+.	c #D79E2D",
"@.	c #5B5A52",
"#.	c #DDBC60",
"$.	c #DFBE61",
"%.	c #968457",
"&.	c #A07A40",
"*.	c #F6B219",
"=.	c #AE833D",
"-.	c #A57D40",
";.	c #64574B",
">.	c #E9C562",
",.	c #BDA35C",
"'.	c #65574B",
").	c #886C45",
"!.	c #A28D59",
"~.	c #EDC963",
"{.	c #3A434F",
"].	c #EBAB22",
"^.	c #DCA02C",
"/.	c #7D6447",
"(.	c #957343",
"_.	c #7F6647",
":.	c #E0A328",
"<.	c #977443",
"[.	c #404950",
"}.	c #988657",
"|.	c #BF8E38",
"1.	c #C99433",
"2.	c #8F7044",
"3.	c #C69234",
"4.	c #454C51",
"5.	c #9F8B58",
"6.	c #8F7F57",
"7.	c #354350",
"8.	c #BB8B39",
"9.	c #DA9F2D",
"0.	c #6D5B4A",
"a.	c #B99F5B",
"b.	c #D0B15F",
"c.	c #8C6D44",
"d.	c #EFAD20",
"e.	c #AC823D",
"f.	c #E4A628",
"g.	c #F6B21A",
"h.	c #A17A40",
"i.	c #AD823C",
"j.	c #F3B01D",
"k.	c #9C7841",
"l.	c #585852",
"m.	c #F7D064",
"n.	c #EECA63",
"o.	c #534F4C",
"p.	c #E1A427",
"q.	c #CA9534",
"r.	c #CF9831",
"s.	c #9D7841",
"t.	c #C6AA5D",
"u.	c #FED766",
"v.	c #3D4851",
"w.	c #2B3E50",
"x.	c #F0AE1D",
"y.	c #F7B218",
"z.	c #EAAA1D",
"A.	c #EAAA20",
"B.	c #F0AE1A",
"C.	c #F5B11B",
"D.	c #927143",
"E.	c #605D52",
"F.	c #5A5952",
"G.	c #E9A922",
"H.	c #F0B75A",
"I.	c #F3D5B2",
"J.	c #F5E9DE",
"K.	c #F9F7F6",
"L.	c #FFFFFF",
"M.	c #FEFEFE",
"N.	c #F6F2ED",
"O.	c #F5E3D0",
"P.	c #F3CA98",
"Q.	c #F3B230",
"R.	c #997542",
"S.	c #B2853B",
"T.	c #C3A75C",
"U.	c #474E51",
"V.	c #735F49",
"W.	c #C89334",
"X.	c #F7B319",
"Y.	c #F2B54E",
"Z.	c #F3DFC9",
"`.	c #FCFCFC",
" +	c #F3F0F0",
".+	c #F6F0F0",
"++	c #F7F6F6",
"@+	c #F8F3EF",
"#+	c #F2CFA4",
"$+	c #EDAC1E",
"%+	c #303F50",
"&+	c #515351",
"*+	c #F5CF64",
"=+	c #7F7455",
"-+	c #2B3E4F",
";+	c #B1843C",
">+	c #F1C58D",
",+	c #FAF7F4",
"'+	c #FDFBFB",
")+	c #EECCCB",
"!+	c #E3928E",
"~+	c #E1594E",
"{+	c #E54C3C",
"]+	c #E34B3C",
"^+	c #CA4941",
"/+	c #CA6E6A",
"(+	c #E7A9A7",
"_+	c #F4E4E3",
":+	c #F5E7D9",
"<+	c #F3B443",
"[+	c #BC8C38",
"}+	c #AA9459",
"|+	c #D7B75F",
"1+	c #D0B25F",
"2+	c #CCAE5E",
"3+	c #3A4550",
"4+	c #30404F",
"5+	c #E5A725",
"6+	c #F2CC9E",
"7+	c #FEFDFD",
"8+	c #F0D5D5",
"9+	c #E36D66",
"0+	c #E44C3C",
"a+	c #E64C3C",
"b+	c #E34C3D",
"c+	c #78414B",
"d+	c #984448",
"e+	c #E59894",
"f+	c #F8F1F1",
"g+	c #FAF2EB",
"h+	c #F4B751",
"i+	c #A17B40",
"j+	c #344250",
"k+	c #E3C162",
"l+	c #3A4650",
"m+	c #A38E59",
"n+	c #847755",
"o+	c #C69235",
"p+	c #F1C283",
"q+	c #EAB7B5",
"r+	c #E14B3D",
"s+	c #DA4B3E",
"t+	c #BF4743",
"u+	c #574351",
"v+	c #414050",
"w+	c #D54A3F",
"x+	c #E2665D",
"y+	c #F4E5E4",
"z+	c #F5EBE1",
"A+	c #F6B330",
"B+	c #F2AF1D",
"C+	c #66584A",
"D+	c #786E54",
"E+	c #3B4751",
"F+	c #DAA02C",
"G+	c #F4B542",
"H+	c #F9F5F1",
"I+	c #EABAB8",
"J+	c #974449",
"K+	c #373E4F",
"L+	c #6C414C",
"M+	c #CF4940",
"N+	c #C14843",
"O+	c #D74A3F",
"P+	c #DD827D",
"Q+	c #FCFBFB",
"R+	c #F2D9BD",
"S+	c #B89F5B",
"T+	c #635F52",
"U+	c #967442",
"V+	c #836847",
"W+	c #C08F37",
"X+	c #F2DDDC",
"Y+	c #974448",
"Z+	c #323F50",
"`+	c #444150",
" @	c #4C3F4E",
".@	c #D94A3E",
"+@	c #79424C",
"@@	c #994448",
"#@	c #E59C99",
"$@	c #FDFDFD",
"%@	c #FDFCFC",
"&@	c #EDB55A",
"*@	c #F7B21A",
"=@	c #6B5B4A",
"-@	c #374450",
";@	c #E4C262",
">@	c #DDA22B",
",@	c #F3B33A",
"'@	c #FBFAF8",
")@	c #E47C76",
"!@	c #DF4B3D",
"~@	c #383E4F",
"{@	c #D4615B",
"]@	c #E7675E",
"^@	c #804B53",
"/@	c #B34645",
"(@	c #CB4941",
"_@	c #CE4940",
":@	c #F4E1E0",
"<@	c #F4EBEA",
"[@	c #F4DEC5",
"}@	c #B98A3A",
"|@	c #6D6653",
"1@	c #F9D265",
"2@	c #9C8958",
"3@	c #F0C99A",
"4@	c #F1DBDA",
"5@	c #DC4B3E",
"6@	c #444151",
"7@	c #E5675D",
"8@	c #E8685E",
"9@	c #A15356",
"0@	c #AD4646",
"a@	c #ECCECD",
"b@	c #F9F6F3",
"c@	c #DEA229",
"d@	c #A59059",
"e@	c #BCA25C",
"f@	c #AF833D",
"g@	c #F3DEC8",
"h@	c #E9AEAB",
"i@	c #6D414D",
"j@	c #814C54",
"k@	c #A05356",
"l@	c #3B4050",
"m@	c #E47068",
"n@	c #F2E0E0",
"o@	c #F5F4F4",
"p@	c #ECCFCE",
"q@	c #F4E9E9",
"r@	c #F2BF77",
"s@	c #40464D",
"t@	c #DAB960",
"u@	c #826846",
"v@	c #F8EEE4",
"w@	c #E3847F",
"x@	c #CD4941",
"y@	c #4C3F4F",
"z@	c #A24547",
"A@	c #CE4941",
"B@	c #533F4E",
"C@	c #6B414C",
"D@	c #E54B3C",
"E@	c #EDCBCA",
"F@	c #F2CEA2",
"G@	c #725E49",
"H@	c #4A4E51",
"I@	c #DEBD61",
"J@	c #304050",
"K@	c #3B444E",
"L@	c #F1AE1D",
"M@	c #FAF4EE",
"N@	c #E0665E",
"O@	c #DB4B3E",
"P@	c #B54745",
"Q@	c #AB4546",
"R@	c #9E4447",
"S@	c #A44547",
"T@	c #84424A",
"U@	c #BA4744",
"V@	c #F0C1BF",
"W@	c #F4D5B1",
"X@	c #806647",
"Y@	c #716A54",
"Z@	c #69414D",
"`@	c #F5D7B5",
" #	c #304150",
".#	c #997642",
"+#	c #F7EEE4",
"@#	c #E4847F",
"##	c #EDC8C6",
"$#	c #F3CFA5",
"%#	c #6F5D4A",
"&#	c #ECAB22",
"*#	c #F2DEC8",
"=#	c #EAACAA",
"-#	c #8B4349",
";#	c #BE4744",
">#	c #E24B3C",
",#	c #F4E3E3",
"'#	c #F0C07D",
")#	c #F5B11A",
"!#	c #39434E",
"~#	c #AA813D",
"{#	c #F2CDA0",
"]#	c #EFD7D7",
"^#	c #69404D",
"/#	c #443F4E",
"(#	c #77414C",
"_#	c #75414C",
":#	c #E58883",
"<#	c #EDC5C4",
"[#	c #FCFAF9",
"}#	c #F2B130",
"|#	c #3B444F",
"1#	c #E2A527",
"2#	c #F3B444",
"3#	c #FAF9F8",
"4#	c #DF6F69",
"5#	c #8D4349",
"6#	c #6E414C",
"7#	c #64404D",
"8#	c #E14B3C",
"9#	c #AF4645",
"0#	c #5A4452",
"a#	c #5A4451",
"b#	c #AE4646",
"c#	c #ECC2C1",
"d#	c #F4E3D1",
"e#	c #B2853C",
"f#	c #786249",
"g#	c #F5DDC4",
"h#	c #F0D7D6",
"i#	c #C84841",
"j#	c #DD4B3E",
"k#	c #9F4448",
"l#	c #A35456",
"m#	c #9F4548",
"n#	c #EBBDBC",
"o#	c #FDFBFA",
"p#	c #F2D7B8",
"q#	c #EFC287",
"r#	c #F4B33A",
"s#	c #F3B01B",
"t#	c #60554B",
"u#	c #8A6C45",
"v#	c #EFAD1E",
"w#	c #F4B74E",
"x#	c #F8F6F2",
"y#	c #E7ADAB",
"z#	c #C44842",
"A#	c #E26E66",
"B#	c #F2C487",
"C#	c #C89335",
"D#	c #856946",
"E#	c #F3C893",
"F#	c #E6A5A3",
"G#	c #B64644",
"H#	c #6B414D",
"I#	c #B74744",
"J#	c #E7A9A6",
"K#	c #F4E0CC",
"L#	c #EEAD1F",
"M#	c #5A524C",
"N#	c #3B434E",
"O#	c #A57D3F",
"P#	c #F4D3AE",
"Q#	c #EBC7C6",
"R#	c #E0594E",
"S#	c #E7B9B8",
"T#	c #F4E1CB",
"U#	c #967443",
"V#	c #C49136",
"W#	c #FDFCFA",
"X#	c #FAF5F5",
"Y#	c #EABEBC",
"Z#	c #E37C76",
"`#	c #E2594E",
" $	c #E59B98",
".$	c #F2DBDA",
"+$	c #F2DFCA",
"@$	c #CF9832",
"#$	c #F3BB67",
"$$	c #F5E6D7",
"%$	c #F9F6F6",
"&$	c #F4E7E6",
"*$	c #F4E5E5",
"=$	c #F5ECEC",
"-$	c #FAF8F6",
";$	c #F2D2AE",
">$	c #F4B22D",
",$	c #F6B11B",
"'$	c #A87F3E",
")$	c #2E3F4F",
"!$	c #AA803E",
"~$	c #EFAD1D",
"{$	c #F2DCC3",
"]$	c #F6F0EA",
"^$	c #FAF9F7",
"/$	c #F6E9DC",
"($	c #F3D0A8",
"_$	c #F2B23A",
":$	c #E6A726",
"<$	c #826746",
"[$	c #BE8D37",
"}$	c #F1AE1E",
"|$	c #F0B031",
"1$	c #F1BC6B",
"2$	c #F1BC6C",
"3$	c #F0B657",
"4$	c #F3B019",
"5$	c #E6A825",
"6$	c #A77E3F",
"7$	c #3D444E",
"8$	c #42474E",
"9$	c #937244",
"0$	c #BC8B39",
"a$	c #D69D2E",
"b$	c #E1A428",
"c$	c #E0A32A",
"d$	c #CE9831",
"e$	c #B4863B",
"f$	c #7D6547",
"                                                                                                                                ",
"                                                                                                                                ",
"                                                                                                                                ",
"                                                                                                                                ",
"                                                                                                                                ",
"                                                                                                                                ",
"                            . +                                                                                                 ",
"                            . . . .                                                                                             ",
"                              @ # . . + .                                                                                       ",
"                                $ % & * + . .                                                                                   ",
"                                  = $ - ; > . . +                                                                               ",
"                                    = $ $ , ' ) . . .                                                                           ",
"                                    , = $ $ = , ! ~ . . +                                                                       ",
"              . .                     { = $ $ = ] = ^ / . + .                                                                   ",
"              . .                       ] = $ $ = ] = ( _ : + . .                                                               ",
"              . . <                       ] = $ $ = ] = $ [ } | . .                                                             ",
"              + . 1 $ =                   = ] = $ $ = ] = $ $ 2 3 . . +                                                         ",
"                + 4 $ $ =                   = ] = $ $ = ] = $ $ = 5 6 . +                                                       ",
"                . 7 8 $ $ = ,                 = 9 0 a b c ] = $ $ = d e . .                                                     ",
"                . . } = $ $ = {               f g + . . h / i ( $ $ = [ j k . .                                                 ",
"                  . l ] = $ $ = m k . n o p     q . + r s . . t m $ $ = ] u v . .                                               ",
"                  . w 8 ] = $ $ x y . . z o A o B C . D E F G . H , $ $ = 2 I J . .                                             ",
"                  . . K = ] = $ $ = i L + M o A o N O . P o E Q . R = $ S . T U . . .                                           ",
"                    . V ( = ] = $ $ = W . X Y o A o Z `  ...o +.. @., = #.* . + . . . .                                         ",
"                    + . $.$ = ] = $ $ = %.. &.*.o A o =.. -.A o ;.. >.] = ,.. '.).k . . .                                       ",
"                    . + !.$ $ = ] = $ $ ~.L {.].*.o A ^.. /.o A (.. i = ] _ . _.o :.<.7 . .                                     ",
"                      . [.m $ $ = ] = $ $ }.+ |.*.*.o 1.. 2.*.o 3.. 4.5.6.7.. 8.*.o A 9.0.. .                                   ",
"                      . . a.= $ $ = ] = $ b.. c.o *.*.d.e.f.*.*.g.h.. . . {.i.g.*.*.o A j.k.. .                                 ",
"                        . l.m.= $ $ = ] = n.. o.A o *.*.o A o *.*.o p.q.r.E o A o *.*.o A g.s.. .                               ",
"                        + . t.] = $ $ = ] u.v.w.x.A o *.*.o A o *.*.o A o *.*.y.z.A.B.*.o A C.D.. .                             ",
"                          . E.[ ] = $ $ = ] F.. G.o A o *.*.o A o *.*.o H.I.J.K.L.L.M.N.O.P.Q.j.R.S.                            ",
"                          . . T.= ] = $ $ = U.. V.W.X.A o *.*.o A o Y.Z.`.L.L.L. +.+++L.L.L.@+#+*.*.$+%++                       ",
"                            . &+*+= ] = $ $ =+-+. . ;+o A o *.*.o >+,+L.'+)+!+~+{+]+^+/+(+_+L.L.:+<+*.[+. +                     ",
"                            + . }+$ = ] = $ |+1+2+3+4+5+o A o *.6+7+L.8+9+0+a+]+b+c+. . d+{+e+f+L.g+h+*.i+. +                   ",
"                              + j+k+$ = ] = l+. m+n+. o+*.o A p+7+L.q+]+r+s+0+a+t+. u+v+. w+a+x+y+L.z+A+B+C+.                   ",
"                              . + D+[ $ = ] E+. . . + F+*.*.G+H+L.I+r+J+K+. L+M+N++ u+v+. O+]+a+P+Q+L.R+o r.. .                 ",
"                                . + S+$ $ = T+. U+V+W+A o *.R+L.X+0+Y+. Z+`+.  @.@+@+ . @@0+a+#@$@L.L.%@&@*@=@.                 ",
"                                  . -@;@$ $ / + >@*.*.o A ,@'@$@)@!@~@Z+{@]@^@. /@]+(@_@a+0+0+:@L.<@L.L.[@A }@. +               ",
"                                  . . |@1@$ 2@. 3.o *.*.o 3@L.4@0+5@+ 6@7@8@9@+ 0@0+0+a+]+a+0+a@L.L.L.L.b@A c@. .               ",
"                                    . . d@= e@. f@A o *.*.g@L.h@0+0+i@+ j@k@l@. (@a+0+{+a+]+a+m@n@o@p@q@L.r@g.s@.               ",
"                                      . . S t@. u@o A o *.v@L.w@a+0+x@y@+ . . z@a+]+A@B@C@5@]+a+0+D@a+E@L.F@*.G@+               ",
"                                        . H@I@J@K@L@o A o M@L.N@]+a+0+O@P@Q@x@0+0+a+R@S@T@U@a+]+a+0+0+V@L.W@*.X@.               ",
"                                        + . ) Y@. r.*.o A M@L.N@a+]+a+0+0+a+]+a+0+0+M+B@Z@O@0+a+]+a+0+V@L.`@o X@.               ",
"                                          + .  #+ .#*.*.o +#L.@#0+a+]+a+0+0+a+]+a+0+0+a+]+a+0+0+a+]+a+##L.$#A %#.               ",
"                                            + . . K@&#*.*.*#L.=#0+0+x@-#;#0+0+a+>#x@(@]+a+]+a+0+0+a+]+,#L.'#)#!#.               ",
"                                              . . . ~#o *.{#L.]#a+0+^#0@/#!@0+!@(#+ . _#!@a+]+a+0+:#<#`.[#}#... +               ",
"                                                . . |#1#o 2#3#$@4#a+5#6#7#8#a+9#. 0#a#. b#0+a+>#c#$@L.L.d#o e#. .               ",
"                                                  . . f#x.o g#L.h#]+b+i#j#a+]+k#. l#l#+ m#0+0+n#L.o#p#q#r#s#t#.                 ",
"                                                    . . u#v#w#x#L.y#]+a+0+0+a+z#. . . . z#a+A#%@%@B#o *.*.C#+ .                 ",
"                                                      . . D#A E#$@$@F#]+a+0+0+a+G#H#L+I#a+]+J#L.K#o A o L#M#.                   ",
"                                                        N#O#o A P#L.L.Q#R#a+0+0+a+]+a+0+0+a+S#L.T#*.o p U#. +                   ",
"                                                          p V#>@A 3@W#L.X#Y#Z#]+0+a+]+`# $.$L.L.+$*.*.f@+ .                     ",
"                                                            . ` @$A #$$$L.L.L.%$&$*$=$`.L.L.-$;$>$,$'$. .                       ",
"                                                            . . )$!$~$o r@{$]$L.L.L.L.^$/$($_$*.:$<$. .                         ",
"                                                                . . r [$}$*.*.|$1$2$3$4$o A 5$6$7$. +                           ",
"                                                                  + . . 8$9$0$a$b$p.c$d$e$f$)$. . .                             ",
"                                                                      . . + . . . . + . . . . +                                 ",
"                                                                            + . + . . + .                                       ",
"                                                                                                                                ",
"                                                                                                                                ",
"                                                                                                                                ",
"                                                                                                                                ",
"                                                                                                                                ",
"                                                                                                                                "};
