/* XPM */
static xpm_row_t const uppercase_e_xpm[] = {
"26 35 2 1",
"  c None",
". c #FFFFFF",
"                          ",
"                          ",
"  ......................  ",
"  ......................  ",
"  ......................  ",
"  ......................  ",
"  ....                    ",
"  ....                    ",
"  ....                    ",
"  ....                    ",
"  ....                    ",
"  .............           ",
"  .............           ",
"  .............           ",
"  .............           ",
"  ....                    ",
"  ....                    ",
"  ....                    ",
"  ....                    ",
"  ....                    ",
"  ....                    ",
"  ....                    ",
"  ....                    ",
"  ....                    ",
"  ....                    ",
"  ....                    ",
"  ....                    ",
"  ....                    ",
"  ....                    ",
"  ......................  ",
"  ......................  ",
"  ......................  ",
"  ......................  ",
"                          ",
"                          "};
