/* XPM */
static char * uppercase_m_xpm[] = {
"26 35 2 1",
" 	c #FFFFFF",
".	c #000000",
"                          ",
"                          ",
"  ....              ....  ",
"  ....              ....  ",
"  ....              ....  ",
"  ....              ....  ",
"  ....              ....  ",
"  .........    .........  ",
"  .........    .........  ",
"  .........    .........  ",
"  .........    .........  ",
"  ....     ....     ....  ",
"  ....     ....     ....  ",
"  ....     ....     ....  ",
"  ....     ....     ....  ",
"  ....              ....  ",
"  ....              ....  ",
"  ....              ....  ",
"  ....              ....  ",
"  ....              ....  ",
"  ....              ....  ",
"  ....              ....  ",
"  ....              ....  ",
"  ....              ....  ",
"  ....              ....  ",
"  ....              ....  ",
"  ....              ....  ",
"  ....              ....  ",
"  ....              ....  ",
"  ....              ....  ",
"  ....              ....  ",
"  ....              ....  ",
"  ....              ....  ",
"                          ",
"                          "};
