/* XPM */
static char * uppercase_g_xpm[] = {
"26 35 2 1",
" 	c #FFFFFF",
".	c #000000",
"                          ",
"                          ",
"      ..................  ",
"      ..................  ",
"      ..................  ",
"      ..................  ",
"  ....                    ",
"  ....                    ",
"  ....                    ",
"  ....                    ",
"  ....                    ",
"  ....         .........  ",
"  ....         .........  ",
"  ....         .........  ",
"  ....         .........  ",
"  ....              ....  ",
"  ....              ....  ",
"  ....              ....  ",
"  ....              ....  ",
"  ....              ....  ",
"  ....              ....  ",
"  ....              ....  ",
"  ....              ....  ",
"  ....              ....  ",
"  ....              ....  ",
"  ....              ....  ",
"  ....              ....  ",
"  ....              ....  ",
"  ....              ....  ",
"      ..............      ",
"      ..............      ",
"      ..............      ",
"      ..............      ",
"                          ",
"                          "};
