/* XPM */
static xpm_row_t const pen_xpm[] = {
"40 40 3 1",
" 	c None",
".	c #000000",
"+	c #FFFFFF",
"                                        ",
"       ..                               ",
"       ....                             ",
"       ......                           ",
"       .......                          ",
"       ....+....                        ",
"       ....++....                       ",
"       ..+..+++...                      ",
"       ..+..++++...                     ",
"       ..++..++++....                   ",
"       ..++..++++++...                  ",
"       ..+++..++++++...                 ",
"       ..+++..+++++++....               ",
"       ..++++..++++++++...              ",
"       ..++++..+++++++++...             ",
"       ..+++++....+++++++...            ",
"       ..+++++.....+++++++...           ",
"       ..++++...+...+++++++..           ",
"       ..++++..+++..+++++++..           ",
"       ..++++..+++..+++++++..           ",
"       ..+++++.....++++++++..           ",
"       ..++++++...+++++++++..           ",
"       ..+++++++++++++++++...           ",
"       ..+++++++++++++++.....           ",
"       ..+++++++++++++....++..          ",
"       ..+++++++++++....++++..          ",
"       ...++++++++....+++++++..         ",
"        ...+++++....+++++++++..         ",
"         ...++....++++++++++++..        ",
"           .....++++++++++++++..        ",
"            ..+++++++++++++++++..       ",
"             ..+++++++++++++++...       ",
"             ..+++++++++++++....        ",
"              ..++++++++++....          ",
"              ..++++++++....            ",
"               ..+++++....              ",
"               ..+++....                ",
"                ......                  ",
"                ....                    ",
"                 .                      "};
