/* XPM */
static xpm_row_t const asteroid_nw_xpm[] = {
"64 64 505 2",
"  	c None",
". 	c #2C3E50",
"+ 	c #2C3E4F",
"@ 	c #2E3F4F",
"# 	c #7D6547",
"$ 	c #B4863B",
"% 	c #CE9831",
"& 	c #E0A32A",
"* 	c #E1A427",
"= 	c #E1A428",
"- 	c #D69D2E",
"; 	c #BC8B39",
"> 	c #937244",
", 	c #42474E",
"' 	c #3D444E",
") 	c #A77E3F",
"! 	c #E6A825",
"~ 	c #F5B119",
"{ 	c #F8B319",
"] 	c #F3B019",
"^ 	c #F0B657",
"/ 	c #F1BC6C",
"( 	c #F1BC6B",
"_ 	c #F0B031",
": 	c #F6B219",
"< 	c #F1AE1E",
"[ 	c #BE8D37",
"} 	c #5B524C",
"| 	c #826746",
"1 	c #E6A726",
"2 	c #F2B23A",
"3 	c #F3D0A8",
"4 	c #F6E9DC",
"5 	c #FAF9F7",
"6 	c #FFFFFF",
"7 	c #F6F0EA",
"8 	c #F2DCC3",
"9 	c #F2BF77",
"0 	c #EFAD1D",
"a 	c #AA803E",
"b 	c #A87F3E",
"c 	c #F6B11B",
"d 	c #F4B22D",
"e 	c #F2D2AE",
"f 	c #FAF8F6",
"g 	c #FCFCFC",
"h 	c #F5ECEC",
"i 	c #F4E5E5",
"j 	c #F4E7E6",
"k 	c #F9F6F6",
"l 	c #F5E6D7",
"m 	c #F3BB67",
"n 	c #CF9832",
"o 	c #41464E",
"p 	c #AF833D",
"q 	c #F2DFCA",
"r 	c #F2DBDA",
"s 	c #E59B98",
"t 	c #E2594E",
"u 	c #E34B3C",
"v 	c #E64C3C",
"w 	c #E44C3C",
"x 	c #E37C76",
"y 	c #EABEBC",
"z 	c #FAF5F5",
"A 	c #FDFCFA",
"B 	c #F0C99A",
"C 	c #DDA22B",
"D 	c #C49136",
"E 	c #F4B119",
"F 	c #967443",
"G 	c #F4E1CB",
"H 	c #E7B9B8",
"I 	c #E0594E",
"J 	c #EBC7C6",
"K 	c #F4D3AE",
"L 	c #A57D3F",
"M 	c #3B434E",
"N 	c #5A524C",
"O 	c #EEAD1F",
"P 	c #F4E0CC",
"Q 	c #E7A9A6",
"R 	c #B74744",
"S 	c #6C414C",
"T 	c #6B414D",
"U 	c #B64644",
"V 	c #E6A5A3",
"W 	c #FDFDFD",
"X 	c #F3C893",
"Y 	c #856946",
"Z 	c #C89335",
"` 	c #F2C487",
" .	c #FDFCFC",
"..	c #E26E66",
"+.	c #C44842",
"@.	c #E7ADAB",
"#.	c #F8F6F2",
"$.	c #F4B74E",
"%.	c #EFAD1E",
"&.	c #8A6C45",
"*.	c #60554B",
"=.	c #F3B01B",
"-.	c #F4B33A",
";.	c #EFC287",
">.	c #F2D7B8",
",.	c #FDFBFA",
"'.	c #EBBDBC",
").	c #9F4548",
"!.	c #A35456",
"~.	c #9F4448",
"{.	c #DD4B3E",
"].	c #C84841",
"^.	c #E34C3D",
"/.	c #F0D7D6",
"(.	c #F5DDC4",
"_.	c #F0AE1D",
":.	c #786249",
"<.	c #B2853C",
"[.	c #F4E3D1",
"}.	c #ECC2C1",
"|.	c #E24B3C",
"1.	c #AE4646",
"2.	c #5A4451",
"3.	c #5A4452",
"4.	c #AF4645",
"5.	c #E14B3C",
"6.	c #64404D",
"7.	c #6E414C",
"8.	c #8D4349",
"9.	c #DF6F69",
"0.	c #FAF9F8",
"a.	c #F3B444",
"b.	c #E2A527",
"c.	c #3B444F",
"d.	c #DCA12A",
"e.	c #F2B130",
"f.	c #FCFAF9",
"g.	c #EDC5C4",
"h.	c #E58883",
"i.	c #DF4B3D",
"j.	c #75414C",
"k.	c #77414C",
"l.	c #443F4E",
"m.	c #AD4646",
"n.	c #69404D",
"o.	c #EFD7D7",
"p.	c #F2CDA0",
"q.	c #AA813D",
"r.	c #39434E",
"s.	c #F5B11A",
"t.	c #F0C07D",
"u.	c #F4E3E3",
"v.	c #CB4941",
"w.	c #CD4941",
"x.	c #BE4744",
"y.	c #8B4349",
"z.	c #EAACAA",
"A.	c #F2DEC8",
"B.	c #ECAB22",
"C.	c #3B444E",
"D.	c #6F5D4A",
"E.	c #F3CFA5",
"F.	c #EDC8C6",
"G.	c #E4847F",
"H.	c #F7EEE4",
"I.	c #997642",
"J.	c #304150",
"K.	c #806647",
"L.	c #F5D7B5",
"M.	c #F0C1BF",
"N.	c #DB4B3E",
"O.	c #69414D",
"P.	c #533F4E",
"Q.	c #CF4940",
"R.	c #E0665E",
"S.	c #FAF4EE",
"T.	c #CF9831",
"U.	c #716A54",
"V.	c #746B54",
"W.	c #F4D5B1",
"X.	c #BA4744",
"Y.	c #84424A",
"Z.	c #A44547",
"`.	c #9E4447",
" +	c #AB4546",
".+	c #B54745",
"++	c #F1AE1D",
"@+	c #304050",
"#+	c #DEBD61",
"$+	c #4A4E51",
"%+	c #725E49",
"&+	c #F2CEA2",
"*+	c #EDCBCA",
"=+	c #E54B3C",
"-+	c #DC4B3E",
";+	c #6B414C",
">+	c #CE4941",
",+	c #A24547",
"'+	c #4C3F4F",
")+	c #E3847F",
"!+	c #F8EEE4",
"~+	c #826846",
"{+	c #DAB960",
"]+	c #CFB15E",
"^+	c #40464D",
"/+	c #F6B21A",
"(+	c #F4E9E9",
"_+	c #ECCFCE",
":+	c #F5F4F4",
"<+	c #F2E0E0",
"[+	c #E47068",
"}+	c #E54C3C",
"|+	c #3B4050",
"1+	c #A05356",
"2+	c #814C54",
"3+	c #6D414D",
"4+	c #E9AEAB",
"5+	c #F3DEC8",
"6+	c #BCA25C",
"7+	c #FFD766",
"8+	c #A59059",
"9+	c #DEA229",
"0+	c #F9F6F3",
"a+	c #ECCECD",
"b+	c #A15356",
"c+	c #E8685E",
"d+	c #E5675D",
"e+	c #444151",
"f+	c #F1DBDA",
"g+	c #C69234",
"h+	c #9C8958",
"i+	c #FDD666",
"j+	c #F9D265",
"k+	c #6D6653",
"l+	c #B98A3A",
"m+	c #F4DEC5",
"n+	c #F4EBEA",
"o+	c #F4E1E0",
"p+	c #CE4940",
"q+	c #B34645",
"r+	c #804B53",
"s+	c #E7675E",
"t+	c #D4615B",
"u+	c #323F50",
"v+	c #383E4F",
"w+	c #E47C76",
"x+	c #FBFAF8",
"y+	c #F3B33A",
"z+	c #7E7255",
"A+	c #E4C262",
"B+	c #374450",
"C+	c #6B5B4A",
"D+	c #F7B21A",
"E+	c #EDB55A",
"F+	c #E59C99",
"G+	c #994448",
"H+	c #79424C",
"I+	c #D94A3E",
"J+	c #4C3F4E",
"K+	c #444150",
"L+	c #974448",
"M+	c #F2DDDC",
"N+	c #F2D9BD",
"O+	c #C08F37",
"P+	c #836847",
"Q+	c #967442",
"R+	c #635F52",
"S+	c #B89F5B",
"T+	c #FCFBFB",
"U+	c #DD827D",
"V+	c #D74A3F",
"W+	c #414050",
"X+	c #574351",
"Y+	c #C14843",
"Z+	c #373E4F",
"`+	c #974449",
" @	c #E14B3D",
".@	c #EABAB8",
"+@	c #F9F5F1",
"@@	c #F4B542",
"#@	c #DAA02C",
"$@	c #3B4751",
"%@	c #FCD565",
"&@	c #FAD365",
"*@	c #786E54",
"=@	c #66584A",
"-@	c #F2AF1D",
";@	c #F6B330",
">@	c #F5EBE1",
",@	c #F4E5E4",
"'@	c #E2665D",
")@	c #D54A3F",
"!@	c #BF4743",
"~@	c #DA4B3E",
"{@	c #EAB7B5",
"]@	c #FEFDFD",
"^@	c #F1C283",
"/@	c #C69235",
"(@	c #847755",
"_@	c #A38E59",
":@	c #3A4650",
"<@	c #E3C162",
"[@	c #344250",
"}@	c #A17B40",
"|@	c #F4B751",
"1@	c #FAF2EB",
"2@	c #F8F1F1",
"3@	c #E59894",
"4@	c #984448",
"5@	c #78414B",
"6@	c #E36D66",
"7@	c #F0D5D5",
"8@	c #F2CC9E",
"9@	c #E5A725",
"0@	c #30404F",
"a@	c #3A4550",
"b@	c #CCAE5E",
"c@	c #D0B25F",
"d@	c #D7B75F",
"e@	c #AA9459",
"f@	c #BC8C38",
"g@	c #F3B443",
"h@	c #F5E7D9",
"i@	c #F4E4E3",
"j@	c #E7A9A7",
"k@	c #CA6E6A",
"l@	c #CA4941",
"m@	c #E1594E",
"n@	c #E3928E",
"o@	c #EECCCB",
"p@	c #FDFBFB",
"q@	c #FAF7F4",
"r@	c #F1C58D",
"s@	c #B1843C",
"t@	c #2B3E4F",
"u@	c #7F7455",
"v@	c #F5CF64",
"w@	c #515351",
"x@	c #303F50",
"y@	c #EDAC1E",
"z@	c #F2CFA4",
"A@	c #F8F3EF",
"B@	c #F7F6F6",
"C@	c #F6F0F0",
"D@	c #F3F0F0",
"E@	c #F3DFC9",
"F@	c #F2B54E",
"G@	c #F7B319",
"H@	c #C89334",
"I@	c #735F49",
"J@	c #474E51",
"K@	c #C3A75C",
"L@	c #B2853B",
"M@	c #997542",
"N@	c #F3B01D",
"O@	c #F3B230",
"P@	c #F3CA98",
"Q@	c #F5E3D0",
"R@	c #F6F2ED",
"S@	c #FEFEFE",
"T@	c #F9F7F6",
"U@	c #F5E9DE",
"V@	c #F3D5B2",
"W@	c #F0B75A",
"X@	c #E9A922",
"Y@	c #5A5952",
"Z@	c #605D52",
"`@	c #927143",
" #	c #F5B11B",
".#	c #F0AE1A",
"+#	c #EAAA20",
"@#	c #EAAA1D",
"##	c #F7B218",
"$#	c #2B3E50",
"%#	c #3D4851",
"&#	c #FED766",
"*#	c #C6AA5D",
"=#	c #9D7841",
"-#	c #ECAB21",
";#	c #CA9534",
">#	c #534F4C",
",#	c #EECA63",
"'#	c #F7D064",
")#	c #585852",
"!#	c #9C7841",
"~#	c #AD823C",
"{#	c #3A434F",
"]#	c #A17A40",
"^#	c #E4A628",
"/#	c #AC823D",
"(#	c #EFAD20",
"_#	c #8C6D44",
":#	c #D0B15F",
"<#	c #B99F5B",
"[#	c #6D5B4A",
"}#	c #DA9F2D",
"|#	c #BB8B39",
"1#	c #354350",
"2#	c #8F7F57",
"3#	c #9F8B58",
"4#	c #454C51",
"5#	c #8F7044",
"6#	c #C99433",
"7#	c #BF8E38",
"8#	c #988657",
"9#	c #F4CE64",
"0#	c #404950",
"a#	c #2D3F4F",
"b#	c #977443",
"c#	c #E0A328",
"d#	c #7F6647",
"e#	c #D3B45F",
"f#	c #CAAD5E",
"g#	c #957343",
"h#	c #7D6447",
"i#	c #DCA02C",
"j#	c #EBAB22",
"k#	c #354250",
"l#	c #EDC963",
"m#	c #A28D59",
"n#	c #2D3F50",
"o#	c #886C45",
"p#	c #65574B",
"q#	c #BDA35C",
"r#	c #E9C562",
"s#	c #64574B",
"t#	c #A57D40",
"u#	c #AE833D",
"v#	c #A07A40",
"w#	c #968457",
"x#	c #DFBE61",
"y#	c #394550",
"z#	c #DDBC60",
"A#	c #FBD465",
"B#	c #5B5A52",
"C#	c #D79E2D",
"D#	c #2D3E50",
"E#	c #E5A726",
"F#	c #EAAA22",
"G#	c #4A4A4D",
"H#	c #C5A95D",
"I#	c #FDD566",
"J#	c #6F6753",
"K#	c #736B54",
"L#	c #494E51",
"M#	c #BBA15B",
"N#	c #69594A",
"O#	c #9E7841",
"P#	c #756149",
"Q#	c #F1B023",
"R#	c #CB9633",
"S#	c #C0A55C",
"T#	c #645F52",
"U#	c #E6C362",
"V#	c #F2CD64",
"W#	c #7B7054",
"X#	c #5F544B",
"Y#	c #CB9533",
"Z#	c #6C5B4A",
"`#	c #86734F",
" $	c #F0B230",
".$	c #B78939",
"+$	c #A48F58",
"@$	c #FED666",
"#$	c #F0CB64",
"$$	c #2F4050",
"%$	c #464C51",
"&$	c #D4B55F",
"*$	c #857755",
"=$	c #40464E",
"-$	c #3C4750",
";$	c #AA803D",
">$	c #857756",
",$	c #B49C5B",
"'$	c #2E3F50",
")$	c #585752",
"!$	c #F3CE64",
"~$	c #FCD465",
"{$	c #C3A75D",
"]$	c #897A56",
"^$	c #EFCA63",
"/$	c #F5CF65",
"($	c #E5C262",
"_$	c #E2C061",
":$	c #E8C562",
"<$	c #F6D064",
"[$	c #555652",
"}$	c #D2B45F",
"|$	c #7A6F55",
"1$	c #9A8857",
"2$	c #B69D5B",
"3$	c #4C5051",
"4$	c #DCBB60",
"5$	c #6E6754",
"6$	c #DABA60",
"7$	c #817555",
"8$	c #D8B860",
"9$	c #CBAE5E",
"0$	c #5C5A52",
"a$	c #BAA05C",
"b$	c #F1CC64",
"c$	c #9A8758",
"d$	c #DBBB60",
"e$	c #666153",
"f$	c #897B56",
"                                                                                                                                ",
"                                                                                                                                ",
"                                                                                                                                ",
"                                                                                                                                ",
"                                                                                                                                ",
"                                                                                                                                ",
"                                      . + . . + . +                                                                             ",
"                                + . . . . + . . . . + . .                                                                       ",
"                            . . . @ # $ % & * = - ; > , . . +                                                                   ",
"                          + . ' ) ! ~ { ] ^ / ( _ : : < [ } . .                                                                 ",
"                        . . | 1 : 2 3 4 5 6 6 6 6 7 8 9 { 0 a @ . .                                                             ",
"                      . . b c d e f 6 6 g h i j k 6 6 6 l m ~ n o .                                                             ",
"                    . + p : : q 6 6 r s t u v w u x y z 6 A B ~ C D E                                                           ",
"                  + . F E { : G 6 H v w w v u v w w v I J 6 6 K ~ { L M                                                         ",
"                  . N O { ~ { P 6 Q u v R S T U v w w v u V W W X ~ Y . .                                                       ",
"                . + Z : : { `  . ...v +.. . . . +.v w w v u @.6 #.$.%.&.. .                                                     ",
"                . *.=.-.;.>.,.6 '.w w ).+ !.!.. ~.u v {.].^.u /.6 (.{ _.:.. .                                                   ",
"              . . <.{ [.6 6 W }.|.v w 1.. 2.3.. 4.v 5.6.7.8.v 9.W 0.a.{ b.c.. .                                                 ",
"              + . d.e.f.g g.h.w v u v i.j.. + k.i.w i.l.m.n.w v o.6 p.: { q.. . .                                               ",
"              . r.s.t.6 u.u v w w v u v u v.w.|.v w w x.y.w.w w z.6 A.: : B.C.. . +                                             ",
"              . D.~ E.6 F.v u v w w v u v w w v u v w w v u v w G.6 H.{ : : I.+ J.. +                                           ",
"              . K.{ L.6 M.w v u v w N.O.P.Q.w w v u v w w v u v R.6 S.~ { : T.. U.V.. +                                         ",
"              . K.: W.6 M.w w v u v X.Y.Z.`.v w w w. +.+N.w v u R.6 S.{ ~ { ++C.@+#+$+.                                         ",
"              + %+: &+6 *+v =+w v u -+;+P.>+u v ,+. . + '+w.w v )+6 !+: { ~ { ~+. {+]+. .                                       ",
"              . ^+/+9 6 (+_+:+<+[+v u v }+w v v.. |+1+2++ 3+w w 4+6 5+: : { ~ p . 6+7+8+. .                                     ",
"              . . 9+~ 0+6 6 6 6 a+w v u v w w m.+ b+c+d+e++ -+w f+6 B { : : { g+. h+i+j+k+. .                                   ",
"              + . l+~ m+6 6 n+6 o+w w v p+v.u q+. r+s+t+u+v+i.w+W x+y+~ { : : C + z+i+i+A+B+.                                   ",
"                . C+D+E+ .6 6 W F+v w G+. + H+I+J+. K+u+. L+w M+6 N+: { ~ O+P+Q+. R+7+i+i+S++ .                                 ",
"                . . T.{ N+6 T+U+v u V+. W+X++ Y+Q.S . Z+`+ @.@6 +@@@: : #@+ . . . $@%@7+i+&@*@+ .                               ",
"                  . =@-@;@>@6 ,@'@v )@. W+X+. !@v w ~@ @u {@6 ]@^@~ { : /@. (@_@. :@7+%@7+i+<@[@+                               ",
"                  + . }@: |@1@6 2@3@}+4@. . 5@^.u v w 6@7@6 ]@8@: { ~ { 9@0@a@b@c@d@i+7+%@7+i+e@. +                             ",
"                    + . f@: g@h@6 6 i@j@k@l@u }+m@n@o@p@6 q@r@{ : : { ~ { s@. . t@u@i+i+7+%@7+v@w@.                             ",
"                      + x@y@: : z@A@6 6 6 B@C@D@6 6 6 g E@F@{ ~ { : : { ~ G@H@I@. J@7+i+i+7+%@7+K@. .                           ",
"                            L@M@N@O@P@Q@R@S@6 6 T@U@V@W@{ : : { ~ { : : { ~ { X@. Y@%@7+i+i+7+%@&@Z@.                           ",
"                            . . `@ #~ { : .#+#@###: : { ~ { : : { ~ { : : { ~ _.$#%#&#%@7+i+i+7+%@*#. +                         ",
"                              . . =#/+~ { : : { ~ { -#T.;#* { : : { ~ { : : { ~ >#. ,#7+%@7+i+i+7+'#)#.                         ",
"                                . . !#N@~ { : : /+~#{#. . . ]#/+: : ^#/#(#: : { _#. :#i+7+%@7+i+i+7+<#. .                       ",
"                                  . . [#}#~ { : |#. 1#2#3#4#. g+{ : 5#. 6#{ : : 7#+ 8#i+i+7+%@7+i+i+9#0#.                       ",
"                                    . . a#b#c#{ d#. e#%@7+f#. g#~ { h#. i#~ { : j#{#k#l#i+i+7+%@7+i+i+m#+ .                     ",
"                                      . . . n#o#p#. q#7+%@r#. s#{ ~ t#. u#{ ~ { : v#. w#7+i+i+7+%@7+i+x#. +                     ",
"                                        . . . . + . y#z#7+A#B#. C#{ d.D#o E#{ ~ { F#G#. H#7+i+i+7+%@7+I#J#.                     ",
"                                          . . . K#L#. ]+i+7+M#. N#-#{ O#. P#Q#{ ~ { R#+ k#f#7+i+i+7+%@7+S#. .                   ",
"                                            . . T#U#V#7+i+i+A#W#. X#Y#-#Z#. `# ${ ~ { .$. . +$@$i+i+7+%@#$$$.                   ",
"                                              . . %$&$%@7+i+i+9#*$. . =$} + . -$    E { ;$. n#9#7+i+i+7+%@>$.                   ",
"                                                . . n#,$&@7+i+i+I#f#z+'$. . + )$!$              ~$7+i+i+7+{$. .                 ",
"                                                    . . ]$^$7+i+i+7+%@/$($_$:$<$7+                A#7+i+i+#$a#.                 ",
"                                                      + . [$}$7+i+i+7+%@7+i+i+7+%@7+                  7+i+i+|$+                 ",
"                                                        + . . 1$V#i+i+7+%@7+i+i+7+%@7+                  7+i+2$. +               ",
"                                                            . . 3${$&@i+7+%@7+i+i+7+%@                      4$. .               ",
"                                                              . . + 5$e#I#7+%@7+i+i+7+%@                      . .               ",
"                                                                  . + . z+6$7+%@7+i+i+7+~$                    . .               ",
"                                                                      + . . 7$8$A#7+i+i+7+A#                                    ",
"                                                                          . . . V.9$A#i+i+7+                                    ",
"                                                                              + . . 0$a$b$i+7+                                  ",
"                                                                                  . . + y#c$d$i+                                ",
"                                                                                      . + . . e$f$                              ",
"                                                                                            . . . .                             ",
"                                                                                                + .                             ",
"                                                                                                                                ",
"                                                                                                                                ",
"                                                                                                                                ",
"                                                                                                                                ",
"                                                                                                                                ",
"                                                                                                                                "};
