/* XPM */
static xpm_row_t const asteroid_sw_xpm[] = {
"64 64 505 2",
"  	c None",
". 	c #2C3E4F",
"+ 	c #2C3E50",
"@ 	c #2D3F4F",
"# 	c #7A6F55",
"$ 	c #B69D5B",
"% 	c #DCBB60",
"& 	c #2F4050",
"* 	c #857756",
"= 	c #C3A75D",
"- 	c #F0CB64",
"; 	c #FDD666",
"> 	c #6F6753",
", 	c #C0A55C",
"' 	c #FCD565",
") 	c #FFD766",
"! 	c #404950",
"~ 	c #A28D59",
"{ 	c #DFBE61",
"] 	c #FDD566",
"^ 	c #585852",
"/ 	c #B99F5B",
"( 	c #F4CE64",
"_ 	c #605D52",
": 	c #C6AA5D",
"< 	c #F7D064",
"[ 	c #FBD465",
"} 	c #515351",
"| 	c #C3A75C",
"1 	c #FAD365",
"2 	c #FCD465",
"3 	c #897B56",
"4 	c #344250",
"5 	c #AA9459",
"6 	c #F5CF64",
"7 	c #FED666",
"8 	c #666153",
"9 	c #786E54",
"0 	c #E3C162",
"a 	c #A48F58",
"b 	c #2D3F50",
"c 	c #DBBB60",
"d 	c #374450",
"e 	c #B89F5B",
"f 	c #CAAD5E",
"g 	c #9A8758",
"h 	c #6D6653",
"i 	c #E4C262",
"j 	c #C5A95D",
"k 	c #354250",
"l 	c #AA803D",
"m 	c #F1CC64",
"n 	c #394550",
"o 	c #A59059",
"p 	c #F9D265",
"q 	c #EDC963",
"r 	c #968457",
"s 	c #B78939",
"t 	c #F8B319",
"u 	c #BAA05C",
"v 	c #4A4E51",
"w 	c #CFB15E",
"x 	c #FED766",
"y 	c #EECA63",
"z 	c #D0B15F",
"A 	c #988657",
"B 	c #4A4A4D",
"C 	c #CB9633",
"D 	c #F4B119",
"E 	c #5C5A52",
"F 	c #746B54",
"G 	c #DEBD61",
"H 	c #DAB960",
"I 	c #BCA25C",
"J 	c #9C8958",
"K 	c #7E7255",
"L 	c #635F52",
"M 	c #3B4751",
"N 	c #3A4650",
"O 	c #D7B75F",
"P 	c #7F7455",
"Q 	c #474E51",
"R 	c #5A5952",
"S 	c #3D4851",
"T 	c #3A434F",
"U 	c #A07A40",
"V 	c #EAAA22",
"W 	c #F5B119",
"X 	c #CBAE5E",
"Y 	c #304150",
"Z 	c #716A54",
"` 	c #304050",
" .	c #D0B25F",
"..	c #2B3E4F",
"+.	c #2B3E50",
"@.	c #534F4C",
"#.	c #8C6D44",
"$.	c #BF8E38",
"%.	c #EBAB22",
"&.	c #F6B219",
"*.	c #F3CE64",
"=.	c #3B444E",
"-.	c #826846",
";.	c #AF833D",
">.	c #C69234",
",.	c #DDA22B",
"'.	c #967442",
").	c #A38E59",
"!.	c #CCAE5E",
"~.	c #735F49",
"{.	c #E9A922",
"].	c #F0AE1D",
"^.	c #F0B230",
"/.	c #3C4750",
"(.	c #585752",
"_.	c #F6D064",
":.	c #D8B860",
"<.	c #997642",
"[.	c #CF9831",
"}.	c #F1AE1D",
"|.	c #836847",
"1.	c #847755",
"2.	c #3A4550",
"3.	c #C89334",
"4.	c #F1B023",
"5.	c #86734F",
"6.	c #E8C562",
"7.	c #817555",
"8.	c #3B444F",
"9.	c #AA813D",
"0.	c #ECAB22",
"a.	c #C08F37",
"b.	c #30404F",
"c.	c #B1843C",
"d.	c #F7B319",
"e.	c #E5A726",
"f.	c #756149",
"g.	c #E2C061",
"h.	c #DABA60",
"i.	c #786249",
"j.	c #E2A527",
"k.	c #DAA02C",
"l.	c #C69235",
"m.	c #E5A725",
"n.	c #EFAD20",
"o.	c #C99433",
"p.	c #DCA02C",
"q.	c #AE833D",
"r.	c #41464E",
"s.	c #6C5B4A",
"t.	c #5B524C",
"u.	c #E5C262",
"v.	c #3B434E",
"w.	c #8A6C45",
"x.	c #AC823D",
"y.	c #2D3E50",
"z.	c #9E7841",
"A.	c #ECAB21",
"B.	c #40464E",
"C.	c #2E3F50",
"D.	c #F5CF65",
"E.	c #D3B45F",
"F.	c #A57D3F",
"G.	c #856946",
"H.	c #EFAD1E",
"I.	c #F3B444",
"J.	c #F2CDA0",
"K.	c #F2DEC8",
"L.	c #F7EEE4",
"M.	c #FAF4EE",
"N.	c #F8EEE4",
"O.	c #F3DEC8",
"P.	c #F0C99A",
"Q.	c #F3B33A",
"R.	c #E4A628",
"S.	c #8F7044",
"T.	c #7D6447",
"U.	c #A57D40",
"V.	c #DCA12A",
"W.	c #CB9533",
"X.	c #6E6754",
"Y.	c #C49136",
"Z.	c #F4B74E",
"`.	c #F5DDC4",
" +	c #FAF9F8",
".+	c #FFFFFF",
"++	c #FBFAF8",
"@+	c #F2D9BD",
"#+	c #F4B542",
"$+	c #5F544B",
"%+	c #F3C893",
"&+	c #F8F6F2",
"*+	c #FDFDFD",
"=+	c #EFD7D7",
"-+	c #EAACAA",
";+	c #E4847F",
">+	c #E0665E",
",+	c #E3847F",
"'+	c #E9AEAB",
")+	c #F1DBDA",
"!+	c #F9F5F1",
"~+	c #F1C283",
"{+	c #D79E2D",
"]+	c #69594A",
"^+	c #857755",
"/+	c #F2CD64",
"(+	c #4C5051",
"_+	c #2E3F4F",
":+	c #CF9832",
"<+	c #F4D3AE",
"[+	c #F0D7D6",
"}+	c #DF6F69",
"|+	c #E64C3C",
"1+	c #E44C3C",
"2+	c #E34B3C",
"3+	c #E47C76",
"4+	c #F2DDDC",
"5+	c #FEFDFD",
"6+	c #F2CC9E",
"7+	c #F6B21A",
"8+	c #957343",
"9+	c #64574B",
"0+	c #7B7054",
"a+	c #9A8857",
"b+	c #AA803E",
"c+	c #E7ADAB",
"d+	c #DC4B3E",
"e+	c #DF4B3D",
"f+	c #EABAB8",
"g+	c #F1C58D",
"h+	c #A17A40",
"i+	c #5B5A52",
"j+	c #BBA15B",
"k+	c #D2B45F",
"l+	c #EFAD1D",
"m+	c #F3BB67",
"n+	c #FDFCFA",
"o+	c #E6A5A3",
"p+	c #E34C3D",
"q+	c #8D4349",
"r+	c #69404D",
"s+	c #CD4941",
"t+	c #6D414D",
"u+	c #383E4F",
"v+	c #974448",
"w+	c #E14B3D",
"x+	c #EAB7B5",
"y+	c #FAF7F4",
"z+	c #F2B54E",
"A+	c #E1A427",
"B+	c #454C51",
"C+	c #E9C562",
"D+	c #EFCA63",
"E+	c #555652",
"F+	c #BE8D37",
"G+	c #F5E6D7",
"H+	c #EBC7C6",
"I+	c #C84841",
"J+	c #6E414C",
"K+	c #AD4646",
"L+	c #8B4349",
"M+	c #DB4B3E",
"N+	c #4C3F4F",
"O+	c #444151",
"P+	c #323F50",
"Q+	c #974449",
"R+	c #F0D5D5",
"S+	c #F3DFC9",
"T+	c #CA9534",
"U+	c #9F8B58",
"V+	c #897A56",
"W+	c #42474E",
"X+	c #F1AE1E",
"Y+	c #F2BF77",
"Z+	c #FAF5F5",
"`+	c #E0594E",
" @	c #DD4B3E",
".@	c #64404D",
"+@	c #443F4E",
"@@	c #BE4744",
"#@	c #B54745",
"$@	c #814C54",
"%@	c #E5675D",
"&@	c #D4615B",
"*@	c #373E4F",
"=@	c #E36D66",
"-@	c #FDFBFB",
";@	c #FCFCFC",
">@	c #F0B75A",
",@	c #8F7F57",
"'@	c #DDBC60",
")@	c #B49C5B",
"!@	c #937244",
"~@	c #F2DCC3",
"{@	c #EABEBC",
"]@	c #E14B3C",
"^@	c #AB4546",
"/@	c #A05356",
"(@	c #E8685E",
"_@	c #E7675E",
":@	c #444150",
"<@	c #DA4B3E",
"[@	c #EECCCB",
"}@	c #F3D5B2",
"|@	c #354350",
"1@	c #BDA35C",
"2@	c #D4B55F",
"3@	c #BC8B39",
"4@	c #F6F0EA",
"5@	c #E37C76",
"6@	c #3B4050",
"7@	c #A15356",
"8@	c #804B53",
"9@	c #6C414C",
"0@	c #E3928E",
"a@	c #F5E9DE",
"b@	c #AD823C",
"c@	c #494E51",
"d@	c #E6C362",
"e@	c #464C51",
"f@	c #D69D2E",
"g@	c #F0B031",
"h@	c #F9F6F6",
"i@	c #C44842",
"j@	c #9F4448",
"k@	c #AF4645",
"l@	c #A24547",
"m@	c #4C3F4E",
"n@	c #CF4940",
"o@	c #E1594E",
"p@	c #F9F7F6",
"q@	c #F7B218",
"r@	c #BB8B39",
"s@	c #7F6647",
"t@	c #65574B",
"u@	c #736B54",
"v@	c #645F52",
"w@	c #E1A428",
"x@	c #F1BC6B",
"y@	c #F4E7E6",
"z@	c #B64644",
"A@	c #77414C",
"B@	c #E24B3C",
"C@	c #CB4941",
"D@	c #B34645",
"E@	c #D94A3E",
"F@	c #C14843",
"G@	c #BF4743",
"H@	c #E54C3C",
"I@	c #F3F0F0",
"J@	c #EAAA1D",
"K@	c #886C45",
"L@	c #F1BC6C",
"M@	c #F4E5E5",
"N@	c #6B414D",
"O@	c #A35456",
"P@	c #5A4452",
"Q@	c #79424C",
"R@	c #78414B",
"S@	c #F6F0F0",
"T@	c #EAAA20",
"U@	c #E0A328",
"V@	c #E0A32A",
"W@	c #F0B657",
"X@	c #F5ECEC",
"Y@	c #5A4451",
"Z@	c #9E4447",
"`@	c #CE4941",
" #	c #574351",
".#	c #CA4941",
"+#	c #F7F6F6",
"@#	c #FEFEFE",
"##	c #F0AE1A",
"$#	c #977443",
"%#	c #CE9831",
"&#	c #F3B019",
"*#	c #FAF9F7",
"=#	c #E2594E",
"-#	c #B74744",
";#	c #75414C",
">#	c #533F4E",
",#	c #A44547",
"'#	c #CE4940",
")#	c #414050",
"!#	c #CA6E6A",
"~#	c #F6F2ED",
"{#	c #DA9F2D",
"]#	c #B4863B",
"^#	c #F6E9DC",
"/#	c #E59B98",
"(#	c #9F4548",
"_#	c #AE4646",
":#	c #69414D",
"<#	c #84424A",
"[#	c #6B414C",
"}#	c #994448",
"|#	c #984448",
"1#	c #E7A9A7",
"2#	c #F5E3D0",
"3#	c #F3B01D",
"4#	c #6D5B4A",
"5#	c #7D6547",
"6#	c #F3D0A8",
"7#	c #F2DBDA",
"8#	c #BA4744",
"9#	c #D74A3F",
"0#	c #D54A3F",
"a#	c #F4E4E3",
"b#	c #F3CA98",
"c#	c #9C7841",
"d#	c #E6A825",
"e#	c #F2B23A",
"f#	c #FAF8F6",
"g#	c #E7B9B8",
"h#	c #E7A9A6",
"i#	c #E26E66",
"j#	c #E59894",
"k#	c #F8F3EF",
"l#	c #F3B230",
"m#	c #F5B11B",
"n#	c #9D7841",
"o#	c #A77E3F",
"p#	c #F2D2AE",
"q#	c #FDFCFC",
"r#	c #EBBDBC",
"s#	c #E47068",
"t#	c #ECCECD",
"u#	c #F4E1E0",
"v#	c #E59C99",
"w#	c #E2665D",
"x#	c #F8F1F1",
"y#	c #F2CFA4",
"z#	c #927143",
"A#	c #3D444E",
"B#	c #E6A726",
"C#	c #F4B22D",
"D#	c #F2DFCA",
"E#	c #F4E1CB",
"F#	c #F4E0CC",
"G#	c #ECC2C1",
"H#	c #F2E0E0",
"I#	c #DD827D",
"J#	c #F4E5E4",
"K#	c #F5E7D9",
"L#	c #997542",
"M#	c #826746",
"N#	c #F6B11B",
"O#	c #F2C487",
"P#	c #FDFBFA",
"Q#	c #E58883",
"R#	c #E54B3C",
"S#	c #F5F4F4",
"T#	c #F4EBEA",
"U#	c #FCFBFB",
"V#	c #FAF2EB",
"W#	c #F3B443",
"X#	c #B2853B",
"Y#	c #A87F3E",
"Z#	c #F2D7B8",
"`#	c #EDC5C4",
" $	c #ECCFCE",
".$	c #F5EBE1",
"+$	c #F4B751",
"@$	c #EDAC1E",
"#$	c #EFC287",
"$$	c #F4E3E3",
"%$	c #EDC8C6",
"&$	c #F0C1BF",
"*$	c #EDCBCA",
"=$	c #F4E9E9",
"-$	c #F6B330",
";$	c #BC8C38",
">$	c #303F50",
",$	c #967443",
"'$	c #EEAD1F",
")$	c #F4B33A",
"!$	c #F4E3D1",
"~$	c #FCFAF9",
"{$	c #F9F6F3",
"]$	c #F4DEC5",
"^$	c #EDB55A",
"/$	c #F2AF1D",
"($	c #A17B40",
"_$	c #5A524C",
":$	c #C89335",
"<$	c #F3B01B",
"[$	c #F2B130",
"}$	c #F0C07D",
"|$	c #F3CFA5",
"1$	c #F5D7B5",
"2$	c #F4D5B1",
"3$	c #F2CEA2",
"4$	c #F7B21A",
"5$	c #66584A",
"6$	c #60554B",
"7$	c #B2853C",
"8$	c #F5B11A",
"9$	c #DEA229",
"0$	c #B98A3A",
"a$	c #6B5B4A",
"b$	c #39434E",
"c$	c #6F5D4A",
"d$	c #806647",
"e$	c #725E49",
"f$	c #40464D",
"                                                                                                                                ",
"                                                                                                                                ",
"                                                                                                                                ",
"                                                                                                                                ",
"                                                                                                                                ",
"                                                                                                                                ",
"                                                                                                                                ",
"                                                                                              . + + +                           ",
"                                                                                        + + . + + + +                           ",
"                                                                                  + + + + @ # $ %                               ",
"                                                                            + . + + & * = - ; ;                                 ",
"                                                                        + + . + > , - ' ) ; ; )                                 ",
"                                                                    . + + ! ~ { ] ) ' ) ; ; )                                   ",
"                                                                + + + ^ / ( ; ; ) ' ) ; ; )                                     ",
"                                                            . + + _ : < ) ; ; ) ' ) ; ; ) [                     + +             ",
"                                                        + . + } | 1 ' ) ; ; ) ' ) ; ; ) 2                     3 + .             ",
"                                                      + . 4 5 6 ) ' ) ; ; ) ' ) ; ; 7 (                     ; 8 +               ",
"                                                  + + . 9 0 ; ) ' ) ; ; ) ' ) ; ; ) a b                   ) c + +               ",
"                                                + + d e 1 ; ) ' ) ; ; ) ' ) ; ; ) f + +               [ ) ; g +                 ",
"                                              + + h i ; ; ) ' ) ; ; ) ' ) ; ; ) j k + l             2 ) ; m n .                 ",
"                                          . + + o p ; ; ) ' ) ; ; ) ' ) ; ; q r + . s t           ' ) ; ; u . +                 ",
"                                        . + v w ) ; ; ) ' ) ; ; ) ' x y z A k + B C t D       ) ' ) ; ; [ E +                   ",
"                                      . + F G H I J K L M N O P Q R S + + . T U V t W       ) ' ) ; ; ) X + +                   ",
"                                    + + Y Z ` + + + . + + +  ...+ + +.@.#.$.%.&.t W t   *.) ' ) ; ; ) [ F +                     ",
"                                  + + + . + =.-.;.>.,.'.+ ).!.+ ~.{.].W t &.&.t W t ^./.(._.) ; ; ) ' :.+ .                     ",
"                                + + + =.<.[.}.t W t &.|.+ 1.2.+ 3.t W t &.&.t W t 4.5.+ . 6.; ; ) ' ) 7.+                       ",
"                              + + 8.9.0.&.&.t W t &.&.a.. + b.c.d.W t &.&.t W t e.f.+ . + g.; ) ' ) h.+ +                       ",
"                            + + i.j.t &.&.t W t &.&.t W k.l.m.t W t &.&.n.o.p.q.r.+ s.t.+ u.) ' ) ] K +                         ",
"                          v.+ w.].t &.&.t W t &.&.t W t &.&.t W t &.&.t x.+ + + y.z.A.B.C.D.' ) ; E.+ .                         ",
"                        D F.G.H.t I.J.K.L.M.M.N.O.P.Q.&.&.t W t &.&.t W R.S.T.U.V.t W.+ K ' ) ; 1 X..                           ",
"                    + + Y.t W Z.`. +.+.+.+.+.+.+.+.+++@+#+W t &.&.t W t &.&.t W t A.$++ f ) ; ; = . +                           ",
"                    + r.,.W %+&+.+*+=+-+;+>+>+,+'+)+*+.+!+~+&.&.t W t &.&.t W t {+]++ ^+] ; ; /+(++                             ",
"                  + _+:+W <+*+.+[+}+|+1+1+|+2+|+1+1+3+4+.+5+6+t W t &.&.7+>.8+9++ + 0+( ; ; ) a++ +                             ",
"                . + b+W P..+*+c+2+|+1+1+|+2+|+1+1+d+e+1+f+.+5+g+t &.&.t h++ + + i+j+[ ; ; ) k++ +                               ",
"                + t.l+m+n+.+o+2+p+q+r+s+2+|+1+s+t+. u+v+w+x+.+y+z+&.t A++ B+f C+[ ) ; ; ) D+E++                                 ",
"              + + F+t G+.+H+2+|+I+J+K+L+|+1+M+N+. O+P++ Q+2+R+.+S+t W T++ U+) ' ) ; ; ) 1 V++ .                                 ",
"              + W+X+Y+.+Z+`+|+1+ @.@+@@@1+1+#@. $@%@&@P+*@w+=@-@;@>@t [.+ ,@' ) '@w ) ' )@+ .                                   ",
"              . !@&.~@.+{@|+1+1+|+]@e+1+1+|+^@+ /@(@_@:@+ <@1+[@.+}@&.A.T |@E.1@n + /+2@b +                                     ",
"            . + 3@&.4@.+5@1+1+|+2+|+1+1+|+2+s++ 6@7@8@+ 9@1+|+0@.+a@&.t b@+ + + + c@d@e@+                                       ",
"            + + f@g@.+h@2+1+|+i@j@k@e+|+2+|+1+l@+ . + m@n@|+2+o@.+p@q@W 7+r@s@t@. u@v@+ +                                       ",
"            . + w@x@.+y@1+|+z@+ + + A@B@|+1+1+|+C@K+D@E@F@G@p+H@I@.+J@t &.&.t K@+ + + +                                         ",
"            + + A+L@.+M@|+2+N@+ O@P@. s+1+1+|+2+|+1+2+Q@. + R@2+S@.+T@&.&.t U@b + + +                                           ",
"            + . V@W@.+X@2+|+9@+ O@Y@+ C@1+n@Z@`@1+1+C@.  # #+ .#+#@###&.t W $#+ + +                                             ",
"            . + %#&#*#;@=#1+-#+ . + ;#2+|+>#,#>#H@|+'#+ )#)#+ !#.+~#&.t W {#@ + +                                               ",
"            + + ]#t ^#.+/#1+|+i@(#_#e+|+2+:#<#[#|+2+|+}#+ + |#1#.+2#t W 3#4#+ +                                                 ",
"              + 5#W 6#.+7#|+2+|+1+1+|+2+|+M+8#d+2+|+1+1+9#0#H@a#.+b#W 7+c#+ +                                                   ",
"              + _+d#e#f#.+g#h#i#1+|+2+|+1+1+|+2+|+1+1+|+2+|+j#.+k#l#m#n#+ +                                                     ",
"              . + o#&.p#.+.+.+q#r#B@|+1+1+|+2+|+s#t#u#v#|+w#x#.+y#3#z#+ +                                                       ",
"                + A#B#C#D#E#F#q#.+G#1+1+|+2+|+1+H#.+.+*+I#J#.+K#&.L#+ +                                                         ",
"                + + M#N#&.&.t O#P#*+Q#|+2+|+1+R#S#.+T#.+U#.+V#W#&.X#+                                                           ",
"                  . + Y#&.t W t Z#.+`#2+|+1+1+|+ $.+.+.+.+.$+$&.@$                                                              ",
"                    + + ;.D t &.#$.+;@$$%$&$&$*$=$.+.+q#@+-$&.;$>$                                                              ",
"                      + . ,$'$&.)$!$~$.+.+.+.+.+.+{$]$^$t /$($+ .                                                               ",
"                        + + _$:$<$t [$}$|$1$2$3$Y+W W 4$[.5$+ .                                                                 ",
"                          . + . 6$7$V.8$W t &.&.7+9$0$a$+ + .                                                                   ",
"                              + + + + b$c$d$d$e$f$+ + + +                                                                       ",
"                                  + . + + + + . + + .                                                                           ",
"                                                                                                                                ",
"                                                                                                                                ",
"                                                                                                                                ",
"                                                                                                                                ",
"                                                                                                                                ",
"                                                                                                                                ",
"                                                                                                                                "};
