/* XPM */
static xpm_row_t const asteroid_ne_xpm[] = {
"64 64 505 2",
"  	c None",
". 	c #2C3E4F",
"+ 	c #2C3E50",
"@ 	c #40464D",
"# 	c #725E49",
"$ 	c #806647",
"% 	c #6F5D4A",
"& 	c #39434E",
"* 	c #6B5B4A",
"= 	c #B98A3A",
"- 	c #DEA229",
"; 	c #F6B21A",
"> 	c #F6B219",
", 	c #F8B319",
"' 	c #F5B119",
") 	c #F5B11A",
"! 	c #DCA12A",
"~ 	c #B2853C",
"{ 	c #60554B",
"] 	c #66584A",
"^ 	c #CF9831",
"/ 	c #F7B21A",
"( 	c #F2BF77",
"_ 	c #F2CEA2",
": 	c #F4D5B1",
"< 	c #F5D7B5",
"[ 	c #F3CFA5",
"} 	c #F0C07D",
"| 	c #F2B130",
"1 	c #F3B01B",
"2 	c #C89335",
"3 	c #5A524C",
"4 	c #A17B40",
"5 	c #F2AF1D",
"6 	c #EDB55A",
"7 	c #F4DEC5",
"8 	c #F9F6F3",
"9 	c #FFFFFF",
"0 	c #FCFAF9",
"a 	c #F4E3D1",
"b 	c #F4B33A",
"c 	c #EEAD1F",
"d 	c #967443",
"e 	c #303F50",
"f 	c #BC8C38",
"g 	c #F6B330",
"h 	c #F2D9BD",
"i 	c #FDFCFC",
"j 	c #F4E9E9",
"k 	c #EDCBCA",
"l 	c #F0C1BF",
"m 	c #EDC8C6",
"n 	c #F4E3E3",
"o 	c #FCFCFC",
"p 	c #EFC287",
"q 	c #F4B119",
"r 	c #AF833D",
"s 	c #EDAC1E",
"t 	c #F4B751",
"u 	c #F5EBE1",
"v 	c #ECCFCE",
"w 	c #E64C3C",
"x 	c #E44C3C",
"y 	c #E34B3C",
"z 	c #EDC5C4",
"A 	c #F2D7B8",
"B 	c #A87F3E",
"C 	c #B2853B",
"D 	c #F3B443",
"E 	c #FAF2EB",
"F 	c #FCFBFB",
"G 	c #F4EBEA",
"H 	c #F5F4F4",
"I 	c #E54B3C",
"J 	c #E58883",
"K 	c #FDFDFD",
"L 	c #FDFBFA",
"M 	c #F2C487",
"N 	c #F6B11B",
"O 	c #826746",
"P 	c #997542",
"Q 	c #F5E7D9",
"R 	c #F4E5E4",
"S 	c #DD827D",
"T 	c #F2E0E0",
"U 	c #ECC2C1",
"V 	c #F4E0CC",
"W 	c #F4E1CB",
"X 	c #F2DFCA",
"Y 	c #F4B22D",
"Z 	c #E6A726",
"` 	c #3D444E",
" .	c #927143",
"..	c #F3B01D",
"+.	c #F2CFA4",
"@.	c #F8F1F1",
"#.	c #E2665D",
"$.	c #E59C99",
"%.	c #F4E1E0",
"&.	c #ECCECD",
"*.	c #E47068",
"=.	c #E24B3C",
"-.	c #EBBDBC",
";.	c #F2D2AE",
">.	c #A77E3F",
",.	c #9D7841",
"'.	c #F5B11B",
").	c #F3B230",
"!.	c #F8F3EF",
"~.	c #E59894",
"{.	c #E26E66",
"].	c #E7A9A6",
"^.	c #E7B9B8",
"/.	c #FAF8F6",
"(.	c #F2B23A",
"_.	c #E6A825",
":.	c #2E3F4F",
"<.	c #9C7841",
"[.	c #F3CA98",
"}.	c #F4E4E3",
"|.	c #E54C3C",
"1.	c #D54A3F",
"2.	c #D74A3F",
"3.	c #DC4B3E",
"4.	c #BA4744",
"5.	c #DB4B3E",
"6.	c #F2DBDA",
"7.	c #F3D0A8",
"8.	c #7D6547",
"9.	c #6D5B4A",
"0.	c #F5E3D0",
"a.	c #E7A9A7",
"b.	c #984448",
"c.	c #994448",
"d.	c #6B414C",
"e.	c #84424A",
"f.	c #69414D",
"g.	c #DF4B3D",
"h.	c #AE4646",
"i.	c #9F4548",
"j.	c #C44842",
"k.	c #E59B98",
"l.	c #F6E9DC",
"m.	c #B4863B",
"n.	c #2D3F4F",
"o.	c #DA9F2D",
"p.	c #F6F2ED",
"q.	c #CA6E6A",
"r.	c #414050",
"s.	c #CE4940",
"t.	c #533F4E",
"u.	c #A44547",
"v.	c #75414C",
"w.	c #B74744",
"x.	c #E2594E",
"y.	c #FAF9F7",
"z.	c #F3B019",
"A.	c #CE9831",
"B.	c #977443",
"C.	c #F0AE1A",
"D.	c #FEFEFE",
"E.	c #F7F6F6",
"F.	c #CA4941",
"G.	c #574351",
"H.	c #CB4941",
"I.	c #CE4941",
"J.	c #9E4447",
"K.	c #CF4940",
"L.	c #5A4451",
"M.	c #A35456",
"N.	c #6C414C",
"O.	c #F5ECEC",
"P.	c #F0B657",
"Q.	c #E0A32A",
"R.	c #2D3F50",
"S.	c #E0A328",
"T.	c #EAAA20",
"U.	c #F6F0F0",
"V.	c #78414B",
"W.	c #79424C",
"X.	c #CD4941",
"Y.	c #5A4452",
"Z.	c #6B414D",
"`.	c #F4E5E5",
" +	c #F1BC6C",
".+	c #E1A427",
"++	c #886C45",
"@+	c #EAAA1D",
"#+	c #F3F0F0",
"$+	c #E34C3D",
"%+	c #BF4743",
"&+	c #C14843",
"*+	c #D94A3E",
"=+	c #B34645",
"-+	c #AD4646",
";+	c #77414C",
">+	c #B64644",
",+	c #F4E7E6",
"'+	c #F1BC6B",
")+	c #E1A428",
"!+	c #645F52",
"~+	c #736B54",
"{+	c #65574B",
"]+	c #7F6647",
"^+	c #BB8B39",
"/+	c #F7B218",
"(+	c #F9F7F6",
"_+	c #E1594E",
":+	c #4C3F4E",
"<+	c #A24547",
"[+	c #AF4645",
"}+	c #9F4448",
"|+	c #F9F6F6",
"1+	c #F0B031",
"2+	c #D69D2E",
"3+	c #464C51",
"4+	c #E6C362",
"5+	c #494E51",
"6+	c #AD823C",
"7+	c #F5E9DE",
"8+	c #E3928E",
"9+	c #804B53",
"0+	c #A15356",
"a+	c #3B4050",
"b+	c #E37C76",
"c+	c #F6F0EA",
"d+	c #BC8B39",
"e+	c #D4B55F",
"f+	c #F2CD64",
"g+	c #394550",
"h+	c #BDA35C",
"i+	c #D3B45F",
"j+	c #354350",
"k+	c #3A434F",
"l+	c #ECAB21",
"m+	c #F3D5B2",
"n+	c #EECCCB",
"o+	c #DA4B3E",
"p+	c #444150",
"q+	c #E7675E",
"r+	c #E8685E",
"s+	c #A05356",
"t+	c #AB4546",
"u+	c #E14B3C",
"v+	c #EABEBC",
"w+	c #F2DCC3",
"x+	c #937244",
"y+	c #B49C5B",
"z+	c #FCD565",
"A+	c #FFD766",
"B+	c #CFB15E",
"C+	c #DDBC60",
"D+	c #8F7F57",
"E+	c #F0B75A",
"F+	c #FDFBFB",
"G+	c #E36D66",
"H+	c #E14B3D",
"I+	c #373E4F",
"J+	c #323F50",
"K+	c #D4615B",
"L+	c #E5675D",
"M+	c #814C54",
"N+	c #B54745",
"O+	c #BE4744",
"P+	c #443F4E",
"Q+	c #64404D",
"R+	c #DD4B3E",
"S+	c #E0594E",
"T+	c #FAF5F5",
"U+	c #F1AE1E",
"V+	c #42474E",
"W+	c #897A56",
"X+	c #FAD365",
"Y+	c #FDD666",
"Z+	c #9F8B58",
"`+	c #CA9534",
" @	c #F3DFC9",
".@	c #F0D5D5",
"+@	c #974449",
"@@	c #444151",
"#@	c #4C3F4F",
"$@	c #8B4349",
"%@	c #6E414C",
"&@	c #C84841",
"*@	c #EBC7C6",
"=@	c #F5E6D7",
"-@	c #BE8D37",
";@	c #555652",
">@	c #EFCA63",
",@	c #FBD465",
"'@	c #E9C562",
")@	c #CAAD5E",
"!@	c #454C51",
"~@	c #F2B54E",
"{@	c #FAF7F4",
"]@	c #EAB7B5",
"^@	c #974448",
"/@	c #383E4F",
"(@	c #6D414D",
"_@	c #69404D",
":@	c #8D4349",
"<@	c #E6A5A3",
"[@	c #FDFCFA",
"}@	c #F3BB67",
"|@	c #EFAD1D",
"1@	c #5B524C",
"2@	c #D2B45F",
"3@	c #BBA15B",
"4@	c #5B5A52",
"5@	c #A17A40",
"6@	c #F1C58D",
"7@	c #FEFDFD",
"8@	c #EABAB8",
"9@	c #E7ADAB",
"0@	c #F0C99A",
"a@	c #AA803E",
"b@	c #9A8857",
"c@	c #F4CE64",
"d@	c #7B7054",
"e@	c #64574B",
"f@	c #957343",
"g@	c #C69234",
"h@	c #F2CC9E",
"i@	c #F2DDDC",
"j@	c #E47C76",
"k@	c #DF6F69",
"l@	c #F0D7D6",
"m@	c #F4D3AE",
"n@	c #CF9832",
"o@	c #4C5051",
"p@	c #FDD566",
"q@	c #857755",
"r@	c #69594A",
"s@	c #D79E2D",
"t@	c #F1C283",
"u@	c #F9F5F1",
"v@	c #F1DBDA",
"w@	c #E9AEAB",
"x@	c #E3847F",
"y@	c #E0665E",
"z@	c #E4847F",
"A@	c #EAACAA",
"B@	c #EFD7D7",
"C@	c #F8F6F2",
"D@	c #F3C893",
"E@	c #DDA22B",
"F@	c #41464E",
"G@	c #C3A75D",
"H@	c #5F544B",
"I@	c #F4B542",
"J@	c #FBFAF8",
"K@	c #FAF9F8",
"L@	c #F5DDC4",
"M@	c #F4B74E",
"N@	c #C49136",
"O@	c #6E6754",
"P@	c #7E7255",
"Q@	c #CB9533",
"R@	c #A57D40",
"S@	c #7D6447",
"T@	c #8F7044",
"U@	c #E4A628",
"V@	c #F3B33A",
"W@	c #F3DEC8",
"X@	c #F8EEE4",
"Y@	c #FAF4EE",
"Z@	c #F7EEE4",
"`@	c #F2DEC8",
" #	c #F2CDA0",
".#	c #F3B444",
"+#	c #EFAD1E",
"@#	c #856946",
"##	c #A57D3F",
"$#	c #F5CF65",
"%#	c #2E3F50",
"&#	c #40464E",
"*#	c #9E7841",
"=#	c #2D3E50",
"-#	c #AC823D",
";#	c #F0AE1D",
">#	c #8A6C45",
",#	c #3B434E",
"'#	c #E5C262",
")#	c #6C5B4A",
"!#	c #AE833D",
"~#	c #DCA02C",
"{#	c #C99433",
"]#	c #EFAD20",
"^#	c #E5A725",
"/#	c #C69235",
"(#	c #DAA02C",
"_#	c #E2A527",
":#	c #786249",
"<#	c #DABA60",
"[#	c #E2C061",
"}#	c #756149",
"|#	c #E5A726",
"1#	c #F7B319",
"2#	c #B1843C",
"3#	c #30404F",
"4#	c #C08F37",
"5#	c #ECAB22",
"6#	c #AA813D",
"7#	c #3B444F",
"8#	c #817555",
"9#	c #E8C562",
"0#	c #86734F",
"a#	c #F1B023",
"b#	c #C89334",
"c#	c #3A4550",
"d#	c #847755",
"e#	c #836847",
"f#	c #F1AE1D",
"g#	c #997642",
"h#	c #3B444E",
"i#	c #D8B860",
"j#	c #F6D064",
"k#	c #585752",
"l#	c #3C4750",
"m#	c #F0B230",
"n#	c #E9A922",
"o#	c #735F49",
"p#	c #CCAE5E",
"q#	c #A38E59",
"r#	c #967442",
"s#	c #826846",
"t#	c #746B54",
"u#	c #F3CE64",
"v#	c #EBAB22",
"w#	c #BF8E38",
"x#	c #8C6D44",
"y#	c #534F4C",
"z#	c #2B3E50",
"A#	c #2B3E4F",
"B#	c #D0B25F",
"C#	c #304050",
"D#	c #716A54",
"E#	c #304150",
"F#	c #CBAE5E",
"G#	c #EAAA22",
"H#	c #A07A40",
"I#	c #3D4851",
"J#	c #5A5952",
"K#	c #474E51",
"L#	c #7F7455",
"M#	c #D7B75F",
"N#	c #3A4650",
"O#	c #3B4751",
"P#	c #635F52",
"Q#	c #9C8958",
"R#	c #BCA25C",
"S#	c #DAB960",
"T#	c #DEBD61",
"U#	c #5C5A52",
"V#	c #CB9633",
"W#	c #4A4A4D",
"X#	c #354250",
"Y#	c #988657",
"Z#	c #D0B15F",
"`#	c #EECA63",
" $	c #FED766",
".$	c #4A4E51",
"+$	c #BAA05C",
"@$	c #B78939",
"#$	c #968457",
"$$	c #EDC963",
"%$	c #F9D265",
"&$	c #A59059",
"*$	c #F1CC64",
"=$	c #FCD465",
"-$	c #AA803D",
";$	c #C5A95D",
">$	c #E4C262",
",$	c #6D6653",
"'$	c #9A8758",
")$	c #B89F5B",
"!$	c #374450",
"~$	c #DBBB60",
"{$	c #A48F58",
"]$	c #E3C162",
"^$	c #786E54",
"/$	c #666153",
"($	c #FED666",
"_$	c #F5CF64",
":$	c #AA9459",
"<$	c #344250",
"[$	c #897B56",
"}$	c #C3A75C",
"|$	c #515351",
"1$	c #F7D064",
"2$	c #C6AA5D",
"3$	c #605D52",
"4$	c #B99F5B",
"5$	c #585852",
"6$	c #DFBE61",
"7$	c #A28D59",
"8$	c #404950",
"9$	c #F0CB64",
"0$	c #C0A55C",
"a$	c #6F6753",
"b$	c #857756",
"c$	c #2F4050",
"d$	c #DCBB60",
"e$	c #B69D5B",
"f$	c #7A6F55",
"                                                                                                                                ",
"                                                                                                                                ",
"                                                                                                                                ",
"                                                                                                                                ",
"                                                                                                                                ",
"                                                                                                                                ",
"                                                                                                                                ",
"                                                                          . + + . + + + + . +                                   ",
"                                                                      + + + + @ # $ $ % & + + + +                               ",
"                                                                  . + + * = - ; > > , ' ) ! ~ { . + .                           ",
"                                                                . + ] ^ / ' ' ( _ : < [ } | , 1 2 3 + +                         ",
"                                                              . + 4 5 , 6 7 8 9 9 9 9 9 9 0 a b > c d . +                       ",
"                                                              e f > g h i 9 9 j k l l m n o 9 p > , q r + +                     ",
"                                                              s > t u 9 9 9 9 v w x x w y z 9 A , ' , > B + .                   ",
"                                                          + C > D E 9 F 9 G 9 H I x w y w J K L M , > > N O + +                 ",
"                                                        + + P > Q 9 R S K 9 9 T x w y w x x U 9 i V W X Y Z ` +                 ",
"                                                      + +  ...+.9 @.#.w $.%.&.*.w y w x x w =.-.i 9 9 9 ;.> >.+ .               ",
"                                                    + + ,.'.).!.9 ~.w y w x x w y w x x w y w x {.].^.9 /.(._.:.+               ",
"                                                  + + <.; ' [.9 }.|.1.2.x x w y 3.4.5.w y w x x w y w 6.9 7.' 8.+               ",
"                                                + + 9...' , 0.9 a.b.+ + c.w y w d.e.f.y w g.h.i.j.w x k.9 l., m.+ +             ",
"                                              + + n.o.' , > p.9 q.+ r.r.+ s.w |.t.u.t.w y v.+ . + w.x x.o y.z.A.+ .             ",
"                                            + + + B.' , > C.D.E.F.+ G.G.. H.x x I.J.K.x H.+ L.M.+ N.w y O.9 P.Q.. +             ",
"                                          + + + R.S., > > T.9 U.y V.+ . W.y x w y w x x X.. Y.M.+ Z.y w `.9  +.++ +             ",
"                                        + + + + ++, > > , @+9 #+|.$+%+&+*+=+-+H.w x x w =.;++ + + >+w x ,+9 '+)++ .             ",
"                                      + + !+~+. {+]+^+; ' /+(+9 _+y w K.:++ . + <+x w y w g.[+}+j.w x y |+9 1+2++ +             ",
"                                      + 3+4+5++ + + + 6+, > 7+9 8+w x N.+ 9+0+a++ X.y w x x w y w x x b+9 c+> d++ .             ",
"                                    + R.e+f++ g+h+i+j+k+l+> m+9 n+x o++ p+q+r+s++ t+w x x g.u+w x x w v+9 w+> x+.               ",
"                                  . + y+z+A+B+C+A+z+D++ ^ , E+o F+G+H+I+J+K+L+M+. N+x x O+P+Q+R+x w S+T+9 ( U+V++               ",
"                                . + W+X+A+Y+Y+A+z+A+Z++ `+' ,  @9 .@y +@+ J+@@. #@5.x w $@-+%@&@w y *@9 =@, -@+ +               ",
"                                + ;@>@A+Y+Y+A+,@'@)@!@+ .+, > ~@{@9 ]@H+^@/@. (@X.x w y X._@:@$+y <@9 [@}@|@1@+                 ",
"                              + + 2@A+Y+Y+,@3@4@+ + + 5@, > > , 6@7@9 8@x g.3.x x w y w x x w y 9@K 9 0@' a@+ .                 ",
"                            + + b@A+Y+Y+c@d@+ + e@f@g@; > > , ' , h@7@9 i@j@x x w y w x x w k@l@9 K m@' n@:.+                   ",
"                            + o@f+Y+Y+p@q@+ r@s@, ' , > > , ' , > > t@u@9 K v@w@x@y@y@z@A@B@K 9 C@D@' E@F@+                     ",
"                          + . G@Y+Y+A+)@+ H@l+, ' , > > , ' , > > , ' I@h J@9 9 9 9 9 9 9 9 K@L@M@' , N@+ +                     ",
"                          . O@X+Y+A+z+P@+ Q@, ! R@S@T@U@' , > > , ' , > > V@0@W@X@Y@Y@Z@`@ #.#, +#@###q                         ",
"                        . + i+Y+A+z+$#%#&#l+*#=#+ + + -#, > > , ' , > > , ' , > > , ' , > > , ;#>#+ ,#                          ",
"                        + P@p@A+z+A+'#+ 1@)#+ F@!#~#{#]#> > , ' , ^#/#(#' , > > , ' , > > , _#:#+ +                             ",
"                      + + <#A+z+A+Y+[#+ . + }#|#, ' , > > , ' 1#2#3#+ . 4#> > , ' , > > 5#6#7#+ +                               ",
"                      + 8#A+z+A+Y+Y+9#. + 0#a#, ' , > > , ' , b#+ c#d#+ e#> , ' , f#^ g#h#+ + +                                 ",
"                    . + i#z+A+Y+Y+A+j#k#l#m#, ' , > > , ' ;#n#o#+ p#q#+ r#E@g@r s#h#+ . + + +                                   ",
"                    + t#,@A+Y+Y+A+z+A+u#  , ' , > v#w#x#y#z#+ + A#B#+ + + . + + + C#D#E#+ +                                     ",
"                  + + F#A+Y+Y+A+z+A+      ' , G#H#k+. + + I#J#K#L#M#N#O#P#P@Q#R#S#T#t#+ .                                       ",
"                  + U#,@Y+Y+A+z+A+      q , V#W#+ X#Y#Z#`# $z+A+Y+Y+A+z+A+Y+Y+A+B+.$+ .                                         ",
"                + . +$Y+Y+A+z+          , @$. + #$$$Y+Y+A+z+A+Y+Y+A+z+A+Y+Y+%$&$+ + .                                           ",
"                . g+*$Y+A+=$            -$+ X#;$A+Y+Y+A+z+A+Y+Y+A+z+A+Y+Y+>$,$+ +                                               ",
"                + '$Y+A+,@              + + )@A+Y+Y+A+z+A+Y+Y+A+z+A+Y+X+)$!$+ +                                                 ",
"              + + ~$A+                  R.{$A+Y+Y+A+z+A+Y+Y+A+z+A+Y+]$^$. + +                                                   ",
"              + /$Y+                    c@($Y+Y+A+z+A+Y+Y+A+z+A+_$:$<$. +                                                       ",
"            . + [$                    =$A+Y+Y+A+z+A+Y+Y+A+z+X+}$|$+ . +                                                         ",
"            + +                     ,@A+Y+Y+A+z+A+Y+Y+A+1$2$3$+ + .                                                             ",
"                                    A+Y+Y+A+z+A+Y+Y+c@4$5$+ + +                                                                 ",
"                                  A+Y+Y+A+z+A+p@6$7$8$+ + .                                                                     ",
"                                A+Y+Y+A+z+9$0$a$+ . + +                                                                         ",
"                                Y+Y+9$G@b$c$+ + . +                                                                             ",
"                              d$e$f$n.+ + + +                                                                                   ",
"                          + + + + . + +                                                                                         ",
"                          + + + .                                                                                               ",
"                                                                                                                                ",
"                                                                                                                                ",
"                                                                                                                                ",
"                                                                                                                                ",
"                                                                                                                                ",
"                                                                                                                                ",
"                                                                                                                                "};
